:FULLY-SPECIFIED
:DEGREES
397
root 3.75146 16.5878 -2.97185 112.687 -93.083 -107.366
lowerback 0.597945 0.922997 -3.34431
upperback 0.762615 1.21709 -0.0817997
thorax 0.378796 0.590845 1.78607
lowerneck -18.9233 -0.540027 -0.00977513
upperneck 20.0974 -1.49058 2.63841
head 9.49938 -0.431261 0.707176
rclavicle 1.51076e-014 -1.17283e-014
rhumerus -30.7827 -3.52568 -82.0135
rradius 21.9845
rwrist 28.7229
rhand -25.4956 2.0964
rfingers 7.12502
rthumb 1.03292 -27.8808
lclavicle 1.51076e-014 -1.17283e-014
lhumerus -32.1559 9.82606 85.7925
lradius 16.4513
lwrist -21.4205
lhand -23.8311 1.72018
lfingers 7.12502
lthumb 2.64052 31.6836
rfemur -8.22651 -3.18608 18.7134
rtibia 54.1095
rfoot 2.89653 -0.857653
rtoes -21.0324
lfemur -17.1279 -12.2336 -26.1895
ltibia 21.4798
lfoot -8.41803 1.69461
ltoes -2.41198
398
root 3.76016 16.5934 -2.95423 108.278 -93.3445 -103.207
lowerback 0.948719 0.842274 -3.65699
upperback 0.874747 1.09395 -0.144472
thorax 0.299685 0.526962 1.89301
lowerneck -18.8447 -0.448849 0.0186681
upperneck 19.8588 -1.36917 2.67333
head 9.39979 -0.370148 0.730313
rclavicle 2.54444e-014 5.1684e-015
rhumerus -30.5901 -3.55414 -82.0143
rradius 22.0618
rwrist 28.6639
rhand -25.6797 2.09973
rfingers 7.12502
rthumb 0.855063 -27.8783
lclavicle 2.54444e-014 5.1684e-015
lhumerus -31.898 9.60974 85.8629
lradius 16.4125
lwrist -21.3677
lhand -23.9725 1.74732
lfingers 7.12502
lthumb 2.50394 31.7124
rfemur -9.63934 -3.62918 18.0876
rtibia 56.7481
rfoot 2.71293 -1.01408
rtoes -21.7354
lfemur -16.0711 -12.1178 -26.7451
ltibia 20.775
lfoot -8.49069 1.7609
ltoes -2.51258
399
root 3.77201 16.5948 -2.93629 105.659 -93.5578 -100.801
lowerback 1.26267 0.75912 -3.85745
upperback 0.981162 0.967969 -0.188986
thorax 0.238091 0.461928 1.95725
lowerneck -18.7892 -0.395126 0.0107693
upperneck 19.6545 -1.28682 2.69255
head 9.3173 -0.331323 0.748661
rclavicle -5.96354e-015 2.78299e-015
rhumerus -30.3799 -3.72924 -81.9571
rradius 22.0885
rwrist 28.6775
rhand -25.957 2.19821
rfingers 7.12502
rthumb 0.587295 -27.7807
lclavicle -5.96354e-015 2.78299e-015
lhumerus -31.5712 9.56097 85.8489
lradius 16.2617
lwrist -21.7227
lhand -24.0761 1.75318
lfingers 7.12502
lthumb 2.40385 31.7194
rfemur -11.0427 -4.09387 17.5903
rtibia 59.1671
rfoot 2.23622 -1.66958
rtoes -21.0046
lfemur -15.1306 -12.0643 -27.2083
ltibia 20.2345
lfoot -8.60103 1.84648
ltoes -2.67491
400
root 3.78349 16.5947 -2.92123 102.713 -93.6723 -98.1796
lowerback 1.71226 0.69017 -3.98302
upperback 1.08534 0.853674 -0.219784
thorax 0.0989696 0.404395 1.99265
lowerneck -18.7151 -0.32666 0.0261837
upperneck 19.5039 -1.20381 2.75199
head 9.25061 -0.2862 0.777065
rclavicle -1.98785e-015 6.95746e-015
rhumerus -30.2131 -3.56995 -82.0597
rradius 22.1544
rwrist 28.3507
rhand -26.127 2.25144
rfingers 7.12502
rthumb 0.423043 -27.7279
lclavicle -1.98785e-015 6.95746e-015
lhumerus -31.2761 9.42017 85.8294
lradius 16.1961
lwrist -21.7028
lhand -24.1993 1.70836
lfingers 7.12502
lthumb 2.28484 31.6759
rfemur -12.2979 -4.53303 17.2457
rtibia 61.321
rfoot 1.5944 -2.56248
rtoes -20.3907
lfemur -14.1582 -11.9649 -27.5736
ltibia 19.8372
lfoot -8.78608 1.94717
ltoes -2.75572
401
root 3.79779 16.5904 -2.90738 100.777 -93.7285 -96.5016
lowerback 2.04091 0.639028 -3.99718
upperback 1.20548 0.770175 -0.246221
thorax 0.0436904 0.360993 1.97212
lowerneck -18.6414 -0.296148 0.0133932
upperneck 19.3516 -1.16937 2.83048
head 9.18453 -0.26374 0.810056
rclavicle 7.15625e-015 -1.39149e-014
rhumerus -30.0363 -3.75776 -82.0459
rradius 22.1912
rwrist 28.5203
rhand -26.2412 2.23728
rfingers 7.12502
rthumb 0.312772 -27.7422
lclavicle 7.15625e-015 -1.39149e-014
lhumerus -30.8648 9.30146 85.8016
lradius 16.037
lwrist -21.8815
lhand -24.3324 1.82267
lfingers 7.12502
lthumb 2.15634 31.7915
rfemur -13.6355 -5.0106 17.0397
rtibia 63.2068
rfoot 1.06874 -3.46173
rtoes -19.0695
lfemur -13.3054 -11.9141 -27.8461
ltibia 19.5056
lfoot -9.01445 2.08499
ltoes -3.14167
402
root 3.81374 16.591 -2.89397 99.7595 -93.7404 -95.6977
lowerback 2.35677 0.589844 -3.93489
upperback 1.28363 0.690638 -0.278169
thorax -0.046895 0.321379 1.9035
lowerneck -18.5578 -0.289795 0.0502689
upperneck 19.2669 -1.17462 2.85932
head 9.14028 -0.261766 0.81265
rclavicle -2.38542e-015 8.34896e-015
rhumerus -29.9075 -3.81794 -82.1257
rradius 22.2194
rwrist 28.2528
rhand -26.4641 2.27914
rfingers 7.12502
rthumb 0.0974786 -27.7006
lclavicle -2.38542e-015 8.34896e-015
lhumerus -30.4644 9.17169 85.719
lradius 15.8311
lwrist -22.2753
lhand -24.5095 1.86325
lfingers 7.12502
lthumb 1.98531 31.8338
rfemur -14.9609 -5.40017 16.9714
rtibia 64.7822
rfoot 0.773656 -4.4034
rtoes -17.5029
lfemur -12.5541 -11.855 -28.0439
ltibia 19.2431
lfoot -9.24746 2.17321
ltoes -3.04253
403
root 3.82567 16.5987 -2.88271 98.3351 -93.7347 -94.4487
lowerback 2.54832 0.537935 -3.92075
upperback 1.38577 0.613341 -0.278295
thorax -0.0443548 0.280537 1.89626
lowerneck -18.5018 -0.266503 0.0982128
upperneck 19.2157 -1.15084 2.84484
head 9.11174 -0.24974 0.802549
rclavicle -7.95139e-016 -2.5842e-015
rhumerus -29.7705 -3.86758 -82.1646
rradius 22.3312
rwrist 28.2732
rhand -26.6389 2.17064
rfingers 7.12502
rthumb -0.0713699 -27.8091
lclavicle -7.95139e-016 -2.5842e-015
lhumerus -29.9813 9.42879 85.523
lradius 15.5714
lwrist -23.0549
lhand -24.6914 1.94761
lfingers 7.12502
lthumb 1.80959 31.9197
rfemur -16.2556 -5.63428 16.9689
rtibia 66.03
rfoot 0.499573 -5.38302
rtoes -16.1067
lfemur -11.8645 -11.9241 -28.2052
ltibia 19.0804
lfoot -9.57505 2.42035
ltoes -3.2054
404
root 3.84161 16.5965 -2.8715 97.981 -93.6777 -94.1776
lowerback 2.66039 0.500993 -3.80951
upperback 1.44536 0.561893 -0.273211
thorax -0.0418851 0.254106 1.83994
lowerneck -18.3937 -0.281581 0.118045
upperneck 19.1803 -1.17883 2.85542
head 9.08048 -0.261912 0.79886
rclavicle -4.77083e-015 8.74653e-015
rhumerus -29.6507 -3.94578 -82.2035
rradius 22.3604
rwrist 28.0549
rhand -26.8847 2.25282
rfingers 7.12502
rthumb -0.308706 -27.7267
lclavicle -4.77083e-015 8.74653e-015
lhumerus -29.4577 9.43709 85.457
lradius 15.3277
lwrist -23.3997
lhand -24.7312 2.06461
lfingers 7.12502
lthumb 1.77119 32.037
rfemur -17.6023 -5.88604 17.0653
rtibia 67.0232
rfoot 0.0633354 -6.31452
rtoes -14.4609
lfemur -11.2942 -11.9704 -28.2923
ltibia 18.9132
lfoot -9.83844 2.59403
ltoes -3.60972
405
root 3.85659 16.5934 -2.86102 98.0205 -93.6256 -94.2869
lowerback 2.77499 0.427325 -3.75331
upperback 1.47984 0.460358 -0.228248
thorax -0.0645213 0.203256 1.85682
lowerneck -18.3559 -0.276958 0.103651
upperneck 19.2849 -1.16841 2.83078
head 9.10946 -0.26122 0.794461
rclavicle -2.5842e-015 5.56597e-015
rhumerus -29.5484 -3.86454 -82.2163
rradius 22.41
rwrist 27.9586
rhand -26.7572 2.23366
rfingers 7.12502
rthumb -0.185545 -27.746
lclavicle -2.5842e-015 5.56597e-015
lhumerus -28.9801 9.66328 85.3459
lradius 15.105
lwrist -24.0275
lhand -24.8159 2.15594
lfingers 7.12502
lthumb 1.68939 32.129
rfemur -18.9033 -6.04369 17.1999
rtibia 67.7496
rfoot -0.653894 -7.28834
rtoes -13.8497
lfemur -10.7756 -12.025 -28.3693
ltibia 18.8165
lfoot -10.1759 2.72317
ltoes -3.81021
